<?xml version="1.0" encoding="UTF-8"?>
<svg id="Layer_1" data-name="Layer 1" xmlns="http://www.w3.org/2000/svg" viewBox="0 0 460.01 103.2">
  <defs>
    <style>
      .cls-1 {
        fill: #fff;
      }
    </style>
  </defs>
  <path d="M460.01,29.16v8.57l-25.79.7c-1,4.26,1.79,8.57,5.92,9.96,3.8,1.28,7.34-.46,10.14-4.13l8.98.84c-2.19,7.03-7.88,9.75-14.29,10.77-11.63,1.85-21.02-6.19-21.92-17.89-.71-9.33,4.01-18.2,12.49-20.93,8.04-2.6,18.46-.19,22.4,7.88l2.06,4.23ZM449.75,31.59c-.49-6.71-4.42-8.21-9.19-7.74-3.45.34-6.8,3.19-6.14,7.87l15.33-.13Z"/>
  <path d="M372.01,0c1.98,1.94,3.55,4.6,2.99,7.47-.37,1.89-3.4,4.07-5.48,4.07-2.77,0-5.56-2.41-5.75-5.1-.16-2.22,1.52-4.76,3.24-6.44h5Z"/>
  <path d="M152.57,24.23c5.29,11.8,1.79,29.42-11.25,31.76-5.16.92-9.21-1.19-13.01-4.26l-2.59,3.22-9.2-.05-.05-53c3.43-.57,7.03-.63,10.45-.26l.51,19.11c4.68-2.99,8.88-5.32,13.94-4.59,4.34.62,9.15,3.47,11.2,8.06ZM141.92,44.62c2.8-4.86,2.86-9.98,1.36-14.89-.96-3.14-4.06-5.44-6.91-5.73s-6.68,1.58-7.87,4.67c-2.78,7.22-1.04,18.65,6.11,19.49,2.35.28,5.93-1.15,7.3-3.54Z"/>
  <path d="M233.9,22.14c7.42,9.42,4.59,28.85-6.48,32.86-6.11,2.22-11.58,1.1-16.04-2.97-.45.53-2.1,2.91-2.81,2.88l-9.17-.42.42-53.01,10.12.08.8,19.5c4.17-3.11,7.44-5.18,11.79-5.1,4.1.07,8.56,2.62,11.37,6.17ZM225.59,28.36c-1.27-3.13-4.98-4.72-8.02-4.31-8.61,1.17-8.78,14.44-5.31,20.75,1.18,2.14,5.03,3.57,7.21,3.45,6.77-.37,9.28-12.09,6.12-19.89Z"/>
  <path d="M40.51,22.39c-3.68,14.66-16.99,13.44-29.41,13.66l-.33,18.8-10.77.13V1.98c9.08.08,18.04-.34,26.59.46,10.63,1,16.29,10.5,13.92,19.95ZM26.26,26.9c4.19-4.49,5.42-11.81-.09-14.99-4.08-2.35-10.07-1.58-14.89-1.04v17.2c5.12-.26,9.38-.59,14.98-1.17Z"/>
  <polygon points="352.79 24.55 353.03 32.91 331.91 33.34 331.4 55.01 320.47 54.76 320.51 2.04 356.39 1.88 356.43 10.67 332.07 10.82 331.83 24.15 352.79 24.55"/>
  <path d="M111.71,36.08c0,11.07-8.98,20.05-20.05,20.05s-20.05-8.98-20.05-20.05,8.98-20.05,20.05-20.05,20.05,8.98,20.05,20.05ZM97.5,46.1c4.56-6.94,3.54-20.12-3.2-21.82-3.61-.91-7.66.29-9.3,3.71-3.28,6.85-1.93,18.04,4.93,20.1,2.05.62,6.33-.1,7.57-1.99Z"/>
  <path d="M181.61,51.56c-5.19,3.87-11.8,6.11-18.01,2.67-3.79-2.1-5.43-6.51-5.15-10.63.25-3.75,2.85-8.73,7.53-9.55l15.54-2.72c1.58-1.69.04-6.19-2.09-7.19-9.07-4.27-8.81,8.98-18.23,2.53-.98-1.97,1.69-6.39,3.78-7.58,7.61-4.34,16.75-4.2,23.88,1.17,2.95,2.22,3.97,6.98,3.92,10.6l-.34,23.92-8.19.25c-.71.02-1.95-2.4-2.62-3.48ZM172.15,48.38c3.12.86,6.74-.24,8-1.87,1.84-2.37,2.11-5.13,2.02-8.78l-9.35,1.41c-1.6.24-3.92,2.88-4.06,4.43-.12,1.35,1.67,4.33,3.38,4.8Z"/>
  <path d="M392.77,31.89l-.51,23.09-10.18-.16.23-37.06,9.11-.65,1.91,3.79c5.03-4.52,11.72-6.34,18.1-3,3.7,1.94,6.44,6.66,6.38,11.01l-.34,26.03-10.46.07v-23.08c-.01-4.1-3.1-7.61-6.41-7.62-4.78-.02-7.72,2.99-7.82,7.58Z"/>
  <path d="M296.31,17.7l-17.6,45.13c-2.12,5.43-11.46,4.96-15.49,3.47-.02-1.78.03-4.17.23-5.22.22-1.18,2.67-1.75,4.42-2.07,2.96-.53,5.34-3.67,4.13-6.82l-13.23-34.62,10.57-.67,8.43,25.33,8.14-24.6c2.97-.36,6.42-.36,10.41.08Z"/>
  <polygon points="254.03 54.89 242.93 55 243.31 1.38 253.98 1.31 254.03 54.89"/>
  <path d="M231.46,103.09c-7.76.75-16.26-2.34-17.4-10.04,6.26-4.46,4.58,4.37,13.76,5.67,3.32.47,7.71-1.1,9.43-4.17,2.25-4.04-1.16-7.91-4.91-8.93-6.16-1.69-16.53-3.54-17.88-10.7-.51-2.68.61-6.93,2.51-9.05,4.8-5.37,12.15-5.34,18.7-3.64,4.35,1.13,7.9,5.43,7.16,9.34-.72.5-3.46,1.45-3.97.77l-2.32-3.08c-3.59-4.78-11.57-4.94-15.07.43-.64.98-1.22,3.41-.94,4.42.33,1.18,2.35,3.41,3.6,3.77l11.63,3.35c5.92,1.71,8.86,6.74,8.15,12.11-.79,5.95-5.55,9.07-12.45,9.74Z"/>
  <path d="M56.69,54.87l-10.69.13V17.02s8.96-.03,8.96-.03l2.26,3.55c3.59-2.96,6.71-4.79,11.48-4.75l.36,8.5c-7.18.51-12.61,3.21-12.55,10.48l.17,20.11Z"/>
  <path d="M319.47,100.23c-3.42,1.73-7.9,3.69-12.17,2.15-3.85-1.39-6.88-5.22-7.69-9.93-1.11-6.47-.23-13.59,5.13-17.69,4.68-3.58,9.81-1.81,15.48.47l.78-12.13c.08-1.29,3.76-1.33,4.73-.35l.03,37.78c0,.92-2.03,2.81-2.62,2.43-.74-.47-1.99-1.43-3.67-2.74ZM319.42,81.53c-.95-2.58-4.55-4.3-6.93-4.35-2.54-.05-5.64,1.92-6.62,4.72-1.35,3.85-1.4,8.35.03,12.2,1.08,2.92,4.83,4.86,7.53,4.61,7.47-.69,8.38-10.68,6-17.18Z"/>
  <rect x="363.24" y="17" width="10.76" height="38"/>
  <path d="M356.53,102.99c-8.21-.8-11.46-7.93-11.39-14.95.08-8.44,5.49-15.19,13.39-15.27,8.42-.09,14.66,6.3,14.45,15.35-.1,4.13-1.63,8.64-4.18,11.29-2.89,3.01-7.45,4.05-12.27,3.58ZM366.41,92.96c.94-3.19.83-7.19-.11-10.17-1.52-4.84-7.75-7.55-11.75-4.18-3.36,2.84-3.94,8.02-3.52,12.32s2.99,7.27,6.72,7.79c3.43.47,7.33-1.22,8.66-5.76Z"/>
  <path d="M390.57,103.13c-6.4.43-12.71-1.46-13.58-8.15,5.94-2.71,4.73,4.51,13.44,4.03,2.04-.11,6.06-2.93,4.32-5.98-2.33-4.1-15.74-1.97-16.92-9.55-.6-3.83,1.19-7.16,4.56-8.98,5.45-2.94,12.91-2.45,16.37,2.66.45.66.77,2.53.66,3.2-.6,3.79-9.26-7.02-14.21-2.22-.82.8-1.94,2.55-2.14,3.44-.68,3.05,8.48,4.22,14.73,6.75,3.06,1.24,3.5,6.8,2.44,9.33-1.43,3.42-5.14,5.17-9.69,5.47Z"/>
  <path d="M293.06,102.21c-.22,1.4-5.41-.41-5.5-1.97-4.55,2-9.44,4.58-14.4,1.45-2.58-1.63-4.24-6.28-4.21-9.54l.19-18.05,4.81-.34,1.01,21.41c.11,2.39,5.14,3.93,7.27,3.49s5.56-2.99,5.64-5.4l.59-19.15,4.83-.06-.24,28.15Z"/>
  <path d="M256.67,93.73c.06,5.82,4.67,3.11,6.63,5.25.48.53.39,2.24-.09,2.76s-2.23,1.06-3.05,1.12c-4.4.32-8.65-1.35-8.75-6.1l-.36-18.19-3.2-2.01c-.57-.36-.24-2.31.29-2.69,6.23-4.37,1.74-8.38,3.66-8.53l3.69-.3c1.79-.15.81,6.99,1.69,7.23l3.86,1.05c1.06.29,2.25.48,2.3,1.06.07.77-1.11,2.39-1.82,2.64l-4.98,1.73.14,14.98Z"/>
  <rect x="333.77" y="73.76" width="5.47" height="29"/>
  <circle cx="336.52" cy="64.91" r="3.16"/>
  <path class="cls-1" d="M449.75,31.59l-15.33.13"/>
</svg>